<svg width="335" height="323" viewBox="0 0 335 323" fill="none" xmlns="http://www.w3.org/2000/svg">
<path d="M32.8615 261.768L293.023 13.0325L303.517 3L331.85 32.6348L321.357 42.6673L61.1949 291.403L19.1667 303.224L32.8615 261.768Z" fill="#FFF9D7"/>
<path d="M321.357 42.6673L293.023 13.0325M321.357 42.6673L61.1949 291.403M321.357 42.6673L331.85 32.6348L303.517 3L293.023 13.0325M293.023 13.0325L32.8616 261.768M32.8616 261.768L47.0282 276.586L61.1949 291.403M32.8616 261.768L19.1667 303.224L61.1949 291.403" stroke="black" stroke-width="4"/>
<path d="M299.585 20.5939L314.097 35.7727L54.2506 284.208L19.1667 303.224L39.7384 269.029L299.585 20.5939Z" stroke="black" stroke-width="2"/>
<path d="M19.1057 303.16L33.4711 298.54L29.1172 297.495L30.6705 292.103L24.4886 294.758L23.4262 291.542L19.1057 303.16Z" fill="black"/>
<path d="M33.4711 298.54L34.0834 300.444L40.872 298.261L33.9382 296.596L33.4711 298.54ZM19.1057 303.16L17.2311 302.463L15.7946 306.326L19.718 305.064L19.1057 303.16ZM29.1172 297.495L27.1954 296.941L26.6164 298.951L28.6501 299.439L29.1172 297.495ZM30.6705 292.103L32.5923 292.657L33.7614 288.599L29.8812 290.265L30.6705 292.103ZM24.4886 294.758L22.5896 295.386L23.2738 297.457L25.2779 296.596L24.4886 294.758ZM23.4262 291.542L25.3252 290.915L23.5378 285.504L21.5516 290.845L23.4262 291.542ZM32.8588 296.636L18.4934 301.256L19.718 305.064L34.0834 300.444L32.8588 296.636ZM33.9382 296.596L29.5844 295.55L28.6501 299.439L33.004 300.485L33.9382 296.596ZM31.0391 298.048L32.5923 292.657L28.7487 291.549L27.1954 296.941L31.0391 298.048ZM29.8812 290.265L23.6994 292.921L25.2779 296.596L31.4598 293.941L29.8812 290.265ZM20.9803 303.857L25.3007 292.239L21.5516 290.845L17.2311 302.463L20.9803 303.857ZM26.3877 294.131L25.3252 290.915L21.5271 292.169L22.5896 295.386L26.3877 294.131Z" fill="black"/>
</svg>
